<svg id="Layer_2" data-name="Layer 2" xmlns="http://www.w3.org/2000/svg" viewBox="0 0 539.09 147.81"><defs><style>.cls-1{fill:none;stroke-width:10px;}.cls-1,.cls-2,.cls-3,.cls-4{stroke:#fff;}.cls-1,.cls-2{stroke-miterlimit:10;}.cls-2,.cls-3,.cls-4{fill:#fff;}.cls-3,.cls-4{stroke-linejoin:round;}.cls-3{stroke-width:2px;}.cls-4{stroke-width:3px;}</style></defs><rect class="cls-1" x="5" y="5" width="529.09" height="137.81" rx="6"/><path class="cls-2" d="M88.45,131.35q8,8.93,8,25.81t-8,25.93q-8,8.92-21.38,8.92-9.57,0-18.66-7.56V190H34.94V90.07H48.41V130q9.09-7.55,18.66-7.56Q80.42,122.43,88.45,131.35ZM78.06,174q4.48-5.73,4.48-16.84t-4.48-16.71q-4.5-5.73-13.23-5.73-8.16,0-16.42,6.61v31.78q8.27,6.62,16.42,6.62Q73.56,179.73,78.06,174Z" transform="translate(-10.46 -70.09)"/><path class="cls-2" d="M128,174.65q5,5.67,15.48,5.67a33.84,33.84,0,0,0,9.09-1.25,62.42,62.42,0,0,0,9.81-3.72l3.78,10.87a44.23,44.23,0,0,1-11.34,4.43A55.68,55.68,0,0,1,142.08,192q-10.76,0-18.25-4.37a28.42,28.42,0,0,1-11.4-12.29,40.88,40.88,0,0,1-3.9-18.31q0-11,4-18.78a28.08,28.08,0,0,1,11-11.81,30.44,30.44,0,0,1,15.48-4q13.35,0,21,8.1t7.62,23.56v5.32h-45Q123.06,169,128,174.65Zm-4.84-26.11h30.24c-.4-5-1.77-8.6-4.14-10.93s-5.78-3.48-10.27-3.48Q126,134.13,123.18,148.54Z" transform="translate(-10.46 -70.09)"/><path class="cls-2" d="M220.75,127.81a16.72,16.72,0,0,1,7.68,9.33,48.56,48.56,0,0,1,1.89,14.71V190H216.85v-6.26a29.49,29.49,0,0,1-8.74,6,24.23,24.23,0,0,1-9.45,1.83q-9.93,0-16.18-6t-6.26-16.36q0-10.64,6.61-16.48t17.84-5.84a34.5,34.5,0,0,1,16.06,3.78,29.12,29.12,0,0,0-1.12-8.15,8.1,8.1,0,0,0-4.13-4.73q-3.14-1.65-9.28-1.65h-9.92V124.32H204Q215,124.32,220.75,127.81Zm-3.9,45.54V160.71a30.23,30.23,0,0,0-13.7-3.31,15.73,15.73,0,0,0-9.51,2.72q-3.72,2.72-3.72,9c0,4,1.06,6.91,3.19,8.69a11.59,11.59,0,0,0,7.68,2.65Q208.58,180.43,216.85,173.35Z" transform="translate(-10.46 -70.09)"/><path class="cls-2" d="M264.34,137.79v33.55q0,4.49,1.41,6.2t5.32,1.71a30.59,30.59,0,0,0,7.44-.94v11.93a45.67,45.67,0,0,1-10.27,1.3c-6.31,0-10.77-1.3-13.41-3.9s-4-6.77-4-12.52V137.79h-8.62V125.51h8.62V103.06h13.47v22.45h15.12v12.28Z" transform="translate(-10.46 -70.09)"/><path class="cls-2" d="M354.68,96.56h13.47V114.4H354.68Zm0,29.77h13.47V192H354.68Z" transform="translate(-10.46 -70.09)"/><path class="cls-2" d="M439.73,131.35q6,6.43,6,21.09V192H432.29V152.44c0-5.44-1-9.33-3-11.7s-5.4-3.54-10.28-3.54q-8.51,0-17.36,7.44V192H388.23V126.33H401.7V133q9.33-8,19.6-8Q433.71,124.91,439.73,131.35Z" transform="translate(-10.46 -70.09)"/><path class="cls-2" d="M476.23,189.41A29.31,29.31,0,0,1,465,177a43.56,43.56,0,0,1,0-35.5A28.91,28.91,0,0,1,476.23,129q7.44-4.55,18.19-4.55T512.5,129a28.54,28.54,0,0,1,11.16,12.46,44.21,44.21,0,0,1,0,35.5,28.92,28.92,0,0,1-11.16,12.46q-7.44,4.6-18.08,4.61T476.23,189.41Zm32.19-13.58q4.91-6.27,4.9-16.66t-4.9-16.54q-4.91-6.25-14-6.26t-14.17,6.26q-5,6.27-5,16.54t5,16.66q5,6.25,14.17,6.26T508.42,175.83Z" transform="translate(-10.46 -70.09)"/><rect class="cls-3" x="281.51" y="56.24" width="21.69" height="64.77"/><polygon class="cls-4" points="291.94 89.74 328.62 116.78 328.62 61.49 291.94 89.74"/></svg>