<svg id="Layer_2" data-name="Layer 2" xmlns="http://www.w3.org/2000/svg" viewBox="0 0 523.72 145.81"><defs><style>.cls-1{fill:none;stroke-miterlimit:10;stroke-width:8px;}.cls-1,.cls-2,.cls-3,.cls-4{stroke:#fff;}.cls-2,.cls-3,.cls-4{fill:#fff;}.cls-3,.cls-4{stroke-linejoin:round;}.cls-4{stroke-width:4px;}</style></defs><rect class="cls-1" x="4" y="4" width="515.72" height="137.81" rx="6"/><path class="cls-2" d="M97.33,131.71q8,8.92,8,25.81t-8,25.93q-8,8.93-21.38,8.92-9.57,0-18.67-7.56v5.55H43.82V90.43H57.28v39.92q9.11-7.56,18.67-7.56Q89.29,122.79,97.33,131.71Zm-10.4,42.65q4.48-5.73,4.49-16.84t-4.49-16.71q-4.49-5.73-13.23-5.73-8.15,0-16.42,6.61v31.78q8.27,6.61,16.42,6.61Q82.45,180.08,86.93,174.36Z" transform="translate(-20.33 -69.45)"/><path class="cls-2" d="M136.9,175q5,5.67,15.47,5.68a33.91,33.91,0,0,0,9.1-1.25,62,62,0,0,0,9.8-3.72l3.78,10.87A44,44,0,0,1,163.71,191,55.59,55.59,0,0,1,151,192.37q-10.76,0-18.25-4.37a28.36,28.36,0,0,1-11.4-12.29,40.91,40.91,0,0,1-3.9-18.31q0-11,4-18.78a28,28,0,0,1,11-11.81,30.4,30.4,0,0,1,15.47-4q13.35,0,21,8.1t7.62,23.56v5.32h-45Q131.94,169.34,136.9,175Zm-4.84-26.1H162.3q-.6-7.44-4.14-10.93t-10.28-3.48Q134.89,134.49,132.06,148.9Z" transform="translate(-20.33 -69.45)"/><path class="cls-2" d="M229.63,128.17a16.74,16.74,0,0,1,7.67,9.33,48.56,48.56,0,0,1,1.89,14.71v38.15H225.73V184.1a29.62,29.62,0,0,1-8.74,6,24.26,24.26,0,0,1-9.45,1.83q-9.93,0-16.19-6t-6.26-16.36q0-10.63,6.62-16.48t17.84-5.84A34.61,34.61,0,0,1,225.61,151a29.24,29.24,0,0,0-1.12-8.15,8.1,8.1,0,0,0-4.14-4.72c-2.08-1.1-5.18-1.65-9.27-1.65h-9.92V124.68h11.69Q223.85,124.68,229.63,128.17Zm-3.9,45.54V161.07a30.23,30.23,0,0,0-13.7-3.31,15.66,15.66,0,0,0-9.51,2.72q-3.72,2.72-3.72,9c0,4,1.06,6.91,3.18,8.69a11.62,11.62,0,0,0,7.68,2.65Q217.46,180.79,225.73,173.71Z" transform="translate(-20.33 -69.45)"/><path class="cls-2" d="M273.21,138.15V171.7c0,3,.48,5.06,1.42,6.2s2.72,1.71,5.32,1.71a30.59,30.59,0,0,0,7.44-.94V190.6a45.68,45.68,0,0,1-10.28,1.3q-9.45,0-13.4-3.9t-4-12.52V138.15h-8.63V125.86h8.63V103.42h13.46v22.44h15.12v12.29Z" transform="translate(-20.33 -69.45)"/><path class="cls-2" d="M351.4,94.92h13.46v17.84H351.4Zm0,29.77h13.46v65.68H351.4Z" transform="translate(-20.33 -69.45)"/><path class="cls-2" d="M436.44,129.71q6,6.43,6,21.09v39.57H429V150.8q0-8.16-2.95-11.7t-10.28-3.54q-8.5,0-17.36,7.44v47.37H384.94V124.69h13.47v6.62q9.33-8,19.61-8Q430.43,123.27,436.44,129.71Z" transform="translate(-20.33 -69.45)"/><path class="cls-2" d="M473,187.77a29.27,29.27,0,0,1-11.23-12.46,43.56,43.56,0,0,1,0-35.5A28.88,28.88,0,0,1,473,127.35q7.44-4.55,18.19-4.55t18.07,4.55a28.54,28.54,0,0,1,11.16,12.46,44.21,44.21,0,0,1,0,35.5,28.92,28.92,0,0,1-11.16,12.46q-7.44,4.6-18.07,4.61T473,187.77Zm32.18-13.58q4.9-6.27,4.91-16.66T505.13,141q-4.89-6.26-14-6.26T477,141q-5,6.27-5,16.54t5,16.66q5,6.26,14.18,6.26T505.13,174.19Z" transform="translate(-20.33 -69.45)"/><rect class="cls-3" x="276.51" y="57.24" width="15.23" height="62.77"/><polygon class="cls-4" points="277.73 89.07 316.27 108.99 316.27 68.26 277.73 89.07"/></svg>